<svg xmlns="http://www.w3.org/2000/svg" width="51" height="54.4" viewBox="0 0 51 54.4">
  <g id="Group_39" data-name="Group 39" transform="translate(-384 -1093)">
    <g id="_725008" data-name="725008" transform="translate(384 1093)">
      <g id="Group_36" data-name="Group 36" transform="translate(11.9)">
        <g id="Group_35" data-name="Group 35">
          <path id="Path_4" data-name="Path 4" d="M154.777,14.181l-11.9-13.6a1.7,1.7,0,0,0-2.557,0l-11.9,13.6A1.7,1.7,0,0,0,129.7,17h6.8V39.1a1.7,1.7,0,0,0,1.7,1.7H145a1.7,1.7,0,0,0,1.7-1.7V17h6.8a1.7,1.7,0,0,0,1.278-2.819Z" transform="translate(-127.998)" fill="#fff"/>
        </g>
      </g>
      <g id="Group_38" data-name="Group 38" transform="translate(0 37.4)">
        <g id="Group_37" data-name="Group 37">
          <path id="Path_5" data-name="Path 5" d="M60.2,352v10.2H22.8V352H16v13.6a3.4,3.4,0,0,0,3.4,3.4H63.6a3.4,3.4,0,0,0,3.4-3.4V352Z" transform="translate(-16 -352)" fill="#fff"/>
        </g>
      </g>
    </g>
  </g>
</svg>
